<?xml version="1.0" standalone="no"?>
<!DOCTYPE svg PUBLIC "-//W3C//DTD SVG 20010904//EN"
 "http://www.w3.org/TR/2001/REC-SVG-20010904/DTD/svg10.dtd">
<svg version="1.0" xmlns="http://www.w3.org/2000/svg"
 width="16.000000pt" height="16.000000pt" viewBox="0 0 16.000000 16.000000"
 preserveAspectRatio="xMidYMid meet">
<metadata>
Created by potrace 1.11, written by Peter Selinger 2001-2013
</metadata>
<g transform="translate(0.000000,16.000000) scale(0.006154,-0.006154)"
fill="#000000" stroke="none">
<path d="M0 1300 l0 -1300 1300 0 1300 0 0 1300 0 1300 -1300 0 -1300 0 0
-1300z m1432 439 c77 -16 159 -63 197 -112 98 -128 74 -339 -51 -437 -75 -60
-153 -80 -309 -80 l-129 0 0 -195 0 -195 -70 0 -70 0 0 515 0 515 190 0 c104
0 213 -5 242 -11z"/>
<path d="M1140 1429 l0 -211 133 4 c118 3 137 6 174 27 63 36 94 87 100 164 9
109 -44 189 -142 216 -22 6 -91 11 -152 11 l-113 0 0 -211z"/>
</g>
</svg>
