<?xml version="1.0" encoding="UTF-8"?>
<svg width="102px" height="126px" viewBox="0 0 102 126" version="1.1" xmlns="http://www.w3.org/2000/svg" xmlns:xlink="http://www.w3.org/1999/xlink">
    <!-- Generator: Sketch 48.2 (47327) - http://www.bohemiancoding.com/sketch -->
    <title>deliverymates</title>
    <desc>Created with Sketch.</desc>
    <defs></defs>
    <g id="Logos" stroke="none" stroke-width="1" fill="none" fill-rule="evenodd" transform="translate(-622.000000, -147.000000)">
        <g id="deliverymates" transform="translate(622.000000, 147.000000)" fill="#A7B6A3" fill-rule="nonzero">
            <g id="Group" transform="translate(51.000000, 63.000000) scale(-1, 1) rotate(-180.000000) translate(-51.000000, -63.000000) ">
                <path d="M61.5,124.5 C53.1,126.3 48.5,126.3 40.5,124.5 C24.3,121 11,111.8 5.1,100.1 C-1.8,86.8 -1.5,65.2 5.7,47.2 C9.5,37.8 17.3,26.5 25.9,17.9 C34.3,9.5 47.3,0 50.3,0 C53.3,0 58.2,2.7 64.9,8 L71,13 L80,13 L89,13 L89,22.7 C89,32.1 89.1,32.6 93.4,41.4 C99.1,52.9 101,60 101.7,72.5 C102.3,84.1 100.6,93.3 96.3,101.2 C90.5,111.9 76.4,121.3 61.5,124.5 Z M38.5,106.1 C47.2,109.6 48.7,109.6 58,106.1 C64.6,103.7 65.5,103 65.8,100.7 C66.1,98.6 66.7,98 68.6,98 C70.6,98 71,97.5 71,95 C71,92.5 70.6,92 68.5,92 C66.2,92 66,91.6 66,87.8 C66,82.8 63.3,76.4 59.9,73.3 C51.9,66 38.4,68.4 33.3,78 C31.2,82 31,83.5 31.2,92.8 L31.5,103.2 L38.5,106.1 Z M41.7,62.5 C47.1,64.6 57.6,63.9 63.6,61 C68.9,58.4 76,51.8 76,49.5 C76,48.2 73.2,48 56.5,48 C45.8,48 37,47.7 37,47.4 C37,45.9 43.6,37.6 49.4,31.9 C54.7,26.8 56,24.9 56,22.4 C56,18.6 54.4,17 50.7,17 C48.4,17 46.2,18.6 40.6,24.3 C23.7,41.2 21.9,49.6 33.4,57.8 C35.9,59.6 39.6,61.7 41.7,62.5 Z" id="Combined-Shape"></path>
            </g>
        </g>
    </g>
</svg>