<?xml version="1.0" encoding="UTF-8"?>
<svg width="119px" height="98px" viewBox="0 0 119 98" version="1.1" xmlns="http://www.w3.org/2000/svg" xmlns:xlink="http://www.w3.org/1999/xlink">
    <!-- Generator: Sketch 42 (36781) - http://www.bohemiancoding.com/sketch -->
    <title>kelisto</title>
    <desc>Created with Sketch.</desc>
    <defs></defs>
    <g id="Page-1" stroke="none" stroke-width="1" fill="none" fill-rule="evenodd">
        <g id="Logos" transform="translate(-389.000000, -20.000000)" fill-rule="nonzero" fill="#A7B6A3">
            <g id="kelisto" transform="translate(389.000000, 19.000000)">
                <g id="Group" transform="translate(59.519835, 49.217522) scale(-1, 1) rotate(-180.000000) translate(-59.519835, -49.217522) translate(0.019835, 0.217522)">
                    <path d="M46.8297525,97.1861166 C37.5669425,96.749753 29.0975209,93.9728934 21.5127275,88.8872736 C18.8271076,87.0902487 16.6373555,85.2852901 14.2571902,82.9051247 C12.2657852,80.9216536 10.8138844,79.2317363 9.23504141,77.0697528 C8.65586785,76.2763643 7.37057858,74.3365296 6.87471081,73.5034718 C3.09024796,67.1801659 0.848925628,60.3094221 0.182479341,53.0102484 C0.0317355375,51.3758682 1.72513913e-14,50.5943806 0.00396694219,48.5712401 C0.00396694219,46.5719013 0.0317355375,45.8657856 0.178512398,44.2076037 C0.829090917,36.9560334 3.09818185,30.0019838 6.87867775,23.6985126 C8.32264471,21.2826448 10.1355373,18.8072729 12.0357026,16.6373555 C18.1646283,9.65157034 26.2333887,4.51834715 35.1669425,1.92000002 C38.4674384,0.963966951 41.7679343,0.376859508 45.4611574,0.0912396703 C46.5758682,0.00396694219 50.0350418,-0.0277685953 51.2806616,0.0317355375 C57.500827,0.341157028 63.260827,1.70578514 68.9692568,4.22479343 C69.8340502,4.60958682 71.7818189,5.58148766 72.6902486,6.08132237 C78.3153726,9.20330587 83.2343809,13.3527274 87.2330587,18.3431407 C91.5371909,23.7223143 94.5798356,29.7877689 96.333224,36.4958681 C96.4244637,36.8330582 96.4958687,37.1305789 96.4958687,37.1543805 C96.4958687,37.1781822 96.2856207,37.2059508 95.9523976,37.2218185 C94.5322323,37.2892565 93.3461166,37.5907442 92.1123976,38.1937194 C88.1970256,40.1097524 86.0945463,44.3107442 86.9196702,48.5712401 C87.0664471,49.3209922 87.3679347,50.1976864 87.7328934,50.9236368 C88.2604967,51.9867773 88.7722322,52.6889261 89.6370256,53.5338848 C90.846943,54.7160336 92.2988438,55.5332237 93.933224,55.9497526 C94.8099182,56.1719014 95.2462819,56.2234716 96.3054554,56.2274385 C97.1266125,56.2274385 97.2495877,56.2353724 97.2495877,56.2869427 C97.2495877,56.3226452 97.2059513,56.608265 97.1504141,56.9216534 C95.2661166,67.7315709 89.7361992,77.60529 81.4809925,84.9084305 C73.6740503,91.8109099 63.951075,96.0317364 53.6132236,97.0036373 C51.7090914,97.1861166 48.5672732,97.2694224 46.8297525,97.1861166 Z M55.8109096,64.6571907 C56.6161989,64.4509097 57.2469427,63.9312403 57.6039675,63.1775213 C57.8142154,62.7292568 57.8737195,62.43967 57.8737195,61.9001659 C57.8737195,61.3368601 57.8142154,61.0631411 57.5722319,60.5712402 C57.3461162,60.1031411 56.8700832,59.6231411 56.401984,59.3890915 C55.9418187,59.1629758 55.5728931,59.0876039 55.0254551,59.1153725 C54.2995046,59.147108 53.791736,59.3692568 53.2998352,59.8611576 C52.5738848,60.587108 52.3080997,61.6304138 52.5818187,62.6895874 C52.8238021,63.6456204 53.5775212,64.4152072 54.4938848,64.6571907 C54.8866121,64.7603312 55.4142154,64.7603312 55.8109096,64.6571907 Z M11.8532233,64.3993394 C12.0634712,64.3120667 12.281653,64.1057857 12.3728927,63.9034717 C12.4561985,63.7249593 12.4561985,63.7249593 12.4760332,56.0370253 L12.4958679,48.3490914 L14.5785125,51.732893 C16.8476035,55.4181823 16.8912398,55.4737195 17.3395043,55.6561989 C17.5735539,55.7514055 17.5775208,55.7514055 19.4975208,55.7633063 L21.4254547,55.7752071 L21.5960333,55.6839675 C21.6991738,55.6284303 21.7983473,55.5332237 21.8419837,55.4538848 C21.9490911,55.2595046 21.9411572,54.958017 21.8261159,54.7596699 C21.7745457,54.6723972 20.6042977,53.0578517 19.2238018,51.1735542 C17.843306,49.2892567 16.7087605,47.7302484 16.6968597,47.7024798 C16.6889258,47.6786781 18.0376861,45.4651244 19.695868,42.7834715 C21.3540498,40.1018186 22.7305787,37.8366946 22.7543804,37.7494218 C22.84562,37.4042979 22.6115705,36.9639673 22.3061159,36.9084301 C22.234711,36.8965293 21.2548762,36.8885954 20.1322316,36.8965293 L18.0892564,36.9084301 L17.8790084,37.0195045 C17.6092564,37.1623144 17.3672729,37.4042979 17.1927274,37.7057855 C17.1173555,37.8327276 16.0304134,39.8400004 14.7768596,42.1606616 L12.4958679,46.381488 L12.4760332,42.0019839 C12.4522315,37.1266119 12.4760332,37.4757028 12.1864464,37.1702483 C11.9206613,36.8925623 11.9166943,36.8885954 10.2307439,36.8885954 C8.57256206,36.8885954 8.56859512,36.8885954 8.29487611,37.1266119 C8.22347115,37.1940499 8.1242976,37.324959 8.07669429,37.4241326 L7.9933885,37.602645 L7.9933885,50.6737195 L7.9933885,63.7487609 L8.08859512,63.9352072 C8.20363644,64.1652899 8.31867776,64.2723973 8.54876041,64.3755378 C8.71933892,64.4548766 8.80264471,64.4588436 10.2188431,64.4588436 C11.456529,64.4588436 11.7381819,64.4469428 11.8532233,64.3993394 Z M46.0680996,64.3953725 C46.2545459,64.3200006 46.452893,64.1295874 46.5639674,63.9233064 L46.6512401,63.7646287 L46.6710748,52.5976864 C46.6909095,42.1606616 46.6948765,41.4188434 46.7583475,41.2323971 C46.8456203,40.9785128 47.0280996,40.7880996 47.2423145,40.7325624 C47.4485955,40.6770252 47.9166947,40.7047938 48.5950418,40.8198351 C49.0274385,40.8912401 49.1385129,40.8991739 49.2773558,40.8595045 C49.5034715,40.7960334 49.6661162,40.6492566 49.7414881,40.4469425 C49.812893,40.2485954 50.1223145,38.2056202 50.1223145,37.9200004 C50.1223145,37.4915706 49.8922319,37.2694218 49.2337195,37.0472731 C47.8532236,36.5910747 45.8221492,36.5117359 44.671736,36.8766946 C43.4657855,37.257521 42.6922318,38.0866119 42.3709095,39.3361987 C42.1804963,40.0621491 42.1884301,39.6019838 42.1884301,52.0343807 C42.1884301,62.4277692 42.196364,63.7249593 42.2479343,63.8519014 C42.3471078,64.089918 42.4899178,64.2446287 42.7120665,64.3557031 L42.9183475,64.4588436 L44.4178517,64.4588436 C45.6833062,64.4588436 45.9411575,64.4509097 46.0680996,64.3953725 Z M82.0522322,61.5907444 C82.1474388,61.5272733 82.2426454,61.4161989 82.2981826,61.2971907 L82.3933892,61.1067774 L82.40529,58.4409923 L82.4171909,55.7712402 L83.6350421,55.7712402 C84.9798355,55.7712402 85.0869429,55.7553724 85.356695,55.5332237 C85.4360339,55.4657856 85.5471082,55.3229757 85.6026454,55.2079344 C85.7057859,55.0016534 85.7057859,54.9976865 85.7057859,54.0178517 C85.7057859,53.1014881 85.701819,53.0221493 85.6224801,52.8555377 C85.5748768,52.7563641 85.4757033,52.6214881 85.3963644,52.5540501 C85.1147115,52.3080997 85.0948768,52.3041327 83.6945462,52.288265 L82.4132239,52.2723972 L82.4132239,47.1114054 C82.4132239,41.510083 82.409257,41.6052896 82.6314057,41.2323971 C82.7424801,41.0380169 82.9170256,40.8833062 83.1233066,40.7880996 C83.3256206,40.6928929 84.1626454,40.6928929 84.6942157,40.7920665 C85.015538,40.8515706 85.1226454,40.8555376 85.2575215,40.8198351 C85.4717363,40.760331 85.6581826,40.6016533 85.7494223,40.3993392 C85.840662,40.1890913 86.2214884,38.2135541 86.2214884,37.9398351 C86.2214884,37.4479342 86.0033066,37.2376863 85.2932239,37.0314053 C83.8611578,36.6148764 81.7269429,36.5276036 80.6082652,36.8370251 C80.2631412,36.9322317 79.866447,37.1028103 79.5847941,37.2733888 C79.2833065,37.4558681 78.8310751,37.9001656 78.6247941,38.2135541 C78.2995049,38.7133888 78.0575214,39.4790086 77.9702487,40.2684301 C77.946447,40.5183475 77.9305792,42.6882649 77.9305792,46.4647938 L77.9305792,52.2723972 L76.8119015,52.288265 C75.5821495,52.3041327 75.5385131,52.3120666 75.2608271,52.5540501 C74.9752073,52.8079344 74.9553726,52.8952071 74.9553726,54.0099179 L74.9553726,55.0016534 L75.066447,55.2198352 C75.1854552,55.4578518 75.4274387,55.6641328 75.6614883,55.7315708 C75.7447941,55.7514055 76.2604966,55.7712402 76.8674387,55.7712402 L77.9266123,55.7712402 L77.9385131,58.0046286 C77.950414,60.035703 77.9583478,60.2499179 78.0257859,60.4204964 C78.1130586,60.6505791 78.3629759,60.9401659 78.5335545,61.0115708 C78.6009925,61.0393394 79.2674388,61.2099179 80.0092569,61.3923973 C81.5444636,61.7652898 81.7586784,61.7851245 82.0522322,61.5907444 Z M32.5487606,55.9100832 C33.6674383,55.7395047 34.6790086,55.3388435 35.4485954,54.7596699 C35.888926,54.4304137 36.5593392,53.7322319 36.844959,53.3038022 C37.9200004,51.6971906 38.4991739,49.4320666 38.5150417,46.7662814 C38.5190086,45.9213227 38.5150417,45.8657856 38.4317359,45.7150417 C38.3325623,45.5285955 38.1778516,45.3778517 37.9834714,45.2747112 C37.8525623,45.2033062 37.6423144,45.1993393 33.1596697,45.1874384 L28.474711,45.1795046 L28.4905788,44.9692566 C28.5262813,44.528926 28.6651242,43.6244632 28.7563639,43.2674384 C29.2522317,41.3117359 30.6089259,40.4509095 33.0247937,40.55405 C34.0284301,40.5976863 34.8614879,40.7642979 35.956364,41.1411574 C36.4522317,41.3117359 36.5633061,41.3395045 36.7616532,41.3236367 C36.9600003,41.307769 37.0115706,41.2879343 37.1345458,41.168926 C37.2138846,41.0935541 37.3051243,40.9824797 37.3368599,40.9150417 C37.4241326,40.7523971 38.1302483,38.7490913 38.1619838,38.5824797 C38.221488,38.2651243 37.9914053,37.8842979 37.6224797,37.6978516 C36.7576863,37.261488 35.4604962,36.9004962 34.2148764,36.7497524 C33.4928929,36.6624797 31.560992,36.6267772 30.9381821,36.6862813 C29.4188432,36.8409921 28.0105788,37.3487607 26.9910746,38.1143805 C25.1980168,39.4631409 24.1467771,41.6251244 23.8452895,44.5923971 C23.5993391,46.9963641 23.8611572,49.3804963 24.5712399,51.1933889 C25.6661159,53.9940501 27.7051242,55.6561989 30.4264466,55.9695873 C30.8628102,56.0171906 32.044959,55.9854551 32.5487606,55.9100832 Z M69.5444635,55.9100832 C70.191075,55.8347113 70.7028106,55.7196699 71.3256205,55.5133889 C72.6426453,55.0770253 73.0115709,54.8033063 73.0115709,54.2677691 C73.0115709,54.0257856 72.4244635,52.3477691 72.253885,52.0938848 C72.1904139,52.0026451 72.0515709,51.875703 71.9523974,51.8161988 C71.6588436,51.6456203 71.4882651,51.665455 70.6512403,51.9748765 C69.5404965,52.3795046 68.9057858,52.5183476 68.1560337,52.5183476 C67.4380172,52.5183476 66.9857857,52.3636369 66.6485957,52.0026451 C66.3748767,51.7090914 66.2558684,51.4234716 66.2360337,51.0029757 C66.216199,50.5824798 66.2717362,50.3920666 66.5256205,50.0350418 C66.8469428,49.5828104 67.5054552,49.130579 69.024794,48.3133889 C70.3854552,47.5795046 70.9368602,47.2343806 71.6112403,46.6909095 C72.7814883,45.7507442 73.4796701,44.6400004 73.7097528,43.3547111 C73.8009924,42.8509095 73.7970255,41.8869425 73.7057858,41.3514053 C73.5709098,40.5619838 73.3130585,39.863802 72.9282651,39.2409921 C72.6386784,38.7728929 71.8849593,38.0072731 71.4128932,37.7018185 C69.6198354,36.5434714 67.0492568,36.3332235 63.9272733,37.0909094 C63.3084303,37.2416532 61.9874386,37.6780169 61.6780171,37.8366946 C61.3646287,37.9953723 61.1702485,38.2095871 61.1147113,38.4714053 C61.0591741,38.7252896 61.0472733,38.6697524 61.4558683,39.9431409 C61.8287609,41.101488 61.8565295,41.1728929 62.0390088,41.3633062 C62.3563642,41.7044632 62.5348766,41.7004963 63.4948766,41.3395045 C64.8317361,40.8357029 65.7123973,40.6135541 66.692232,40.5302483 C68.0965296,40.41124 68.9295874,40.7523971 69.1795048,41.5457855 C69.235042,41.720331 69.2469428,41.8671078 69.235042,42.1804963 C69.2231411,42.5573558 69.2112403,42.612893 69.0763643,42.882645 C68.7074387,43.6244632 68.1163643,44.0925624 66.2280998,45.1398351 C64.4231411,46.1434715 63.8042981,46.5719013 63.0743808,47.3256203 C62.4555378,47.9682649 62.1381824,48.4680996 61.9080998,49.1781823 C61.7454551,49.678017 61.6899179,50.0469426 61.6938849,50.6538848 C61.7057857,52.149422 62.1897526,53.3910749 63.1299179,54.3312402 C64.085951,55.2872732 65.391075,55.8307443 67.0611577,55.9735542 C67.5649593,56.0132237 68.9414882,55.9775212 69.5444635,55.9100832 Z M56.9573559,55.6403311 C57.1795047,55.509422 57.3500832,55.2872732 57.4175212,55.0492567 C57.4532237,54.9223146 57.4611576,52.7603311 57.4532237,46.2069426 L57.4413229,37.535207 L57.3223146,37.3408268 C57.2469427,37.2218185 57.1279344,37.1028103 57.0089262,37.0274384 L56.814546,36.9084301 L55.303141,36.8965293 C54.2558683,36.8885954 53.7441327,36.8965293 53.6370253,36.9282648 C53.4148765,36.9957028 53.1173559,37.2892565 53.038017,37.5193392 C52.9824798,37.6859508 52.9785129,38.6102483 52.9864468,46.3894219 C52.9983476,54.7795046 53.0023145,55.0809922 53.0737195,55.2158683 C53.2125625,55.4776865 53.4188435,55.648265 53.6925625,55.7355377 C53.7480997,55.7514055 54.4621493,55.7633063 55.2793394,55.7593394 L56.7669427,55.7514055 L56.9573559,55.6403311 Z" id="Shape"></path>
                    <path d="M30.7755375,52.3795046 C30.4581821,52.2922319 30.2995044,52.21686 30.0257854,52.0224798 C29.7004961,51.7884302 29.4228102,51.4433063 29.1808267,50.9712401 C28.819835,50.2690914 28.6532234,49.6304137 28.4826449,48.3252897 L28.4667771,48.1943806 L31.2436367,48.1943806 L34.0204962,48.1943806 L33.9966945,48.4839674 C33.9490912,49.0076038 33.8538846,49.678017 33.7785127,50.0033063 C33.4611573,51.3560335 32.8502482,52.1375211 31.9299177,52.3795046 C31.6442978,52.4548765 31.0532234,52.4509096 30.7755375,52.3795046 Z" id="Shape"></path>
                    <path d="M95.9206621,52.5342154 C93.6039678,52.2803311 91.7038025,50.8006616 90.9500835,48.6664467 C90.7081,47.9761988 90.6446289,47.5834715 90.6446289,46.726612 C90.6446289,45.8697525 90.6961992,45.5285955 90.9104141,44.8899178 C91.5570256,42.9461161 93.1477695,41.4981822 95.1629761,41.0221491 C95.5636373,40.9269425 95.6786786,40.9190086 96.4363645,40.9150417 C97.1067778,40.9150417 97.3368604,40.9309095 97.6066125,40.9904136 C99.9510753,41.5021491 101.668761,43.2198351 102.17653,45.5484302 C102.303472,46.1276037 102.303472,47.3176864 102.17653,47.8849591 C101.910745,49.0829757 101.426778,49.9715707 100.565951,50.8363641 C99.701158,51.6971906 98.7451249,52.212893 97.5788439,52.4390088 C97.162315,52.5183476 96.265786,52.5699178 95.9206621,52.5342154 Z" id="Shape"></path>
                    <path d="M109.13058,44.7193393 C108.277687,44.5368599 107.531902,43.8783475 107.147108,42.9619839 C106.536199,41.5180169 106.679009,39.3322318 107.452563,38.2095871 C107.841323,37.6423144 108.400662,37.257521 109.110745,37.0671078 C109.495538,36.9679342 110.594381,36.9401656 111.133885,37.0234714 C111.863803,37.1345458 112.439009,37.3566946 112.561985,37.5748764 C112.617522,37.6780169 112.613555,37.7097524 112.466778,38.1302483 C112.193059,38.9196698 112.177191,38.9355376 111.701158,38.7808268 C111.014877,38.5547111 110.538844,38.49124 110.046943,38.5547111 C109.198018,38.6657855 108.80529,39.1338847 108.694216,40.1732235 L108.666447,40.4191739 L110.554712,40.4191739 C111.87967,40.4191739 112.466778,40.4310748 112.538183,40.4628103 C112.73653,40.55405 112.768266,40.7127277 112.724629,41.3474384 C112.633389,42.6525624 112.343803,43.4618186 111.752728,44.052893 C111.256861,44.5447938 110.614216,44.7867773 109.797026,44.7788434 C109.582811,44.7788434 109.28529,44.7510748 109.13058,44.7193393 Z M110.201654,43.2793392 C110.392067,43.1960335 110.602315,42.9659508 110.701489,42.7358682 C110.788761,42.541488 110.883968,42.1051244 110.899836,41.8274384 L110.911737,41.6290913 L109.793059,41.6171905 L108.674381,41.6092566 L108.674381,41.6965293 C108.674381,41.8472731 108.785456,42.3312401 108.872728,42.5613227 C109.114712,43.2079343 109.685951,43.5173558 110.201654,43.2793392 Z" id="Shape"></path>
                    <path d="M115.894216,44.7272731 C115.164299,44.5725624 114.640662,44.2195045 114.355042,43.6839674 C114.013885,43.0373558 114.025786,42.1725624 114.382811,41.6132235 C114.648596,41.2006615 115.041323,40.895207 116.017191,40.343802 C116.929588,39.8280995 117.195373,39.5385128 117.155704,39.1061161 C117.092232,38.4515706 116.298844,38.3365293 115.009588,38.7927276 C114.509753,38.97124 114.343142,38.9871078 114.240001,38.8760334 C114.144794,38.7768599 113.871075,37.9398351 113.871075,37.7573557 C113.871075,37.6621491 113.898844,37.5907442 113.962315,37.53124 C114.08529,37.4161987 114.577191,37.2376863 115.160332,37.1028103 C115.580828,37.0036367 115.715704,36.9917359 116.33058,36.9917359 C117.100166,36.9877689 117.318348,37.0274384 117.794381,37.2535541 C118.143472,37.4201656 118.571902,37.8446285 118.74248,38.1976863 C119.091571,38.907769 119.055869,39.8082648 118.659175,40.4271078 C118.385456,40.8515706 117.941158,41.2046285 117.084299,41.6687607 C116.47339,41.9980169 116.306778,42.1130582 116.120332,42.3193392 C115.95372,42.5018186 115.914051,42.6208268 115.945786,42.8390087 C115.99339,43.2079343 116.255208,43.3785128 116.766943,43.3705789 C117.048596,43.366612 117.187439,43.3388434 117.611902,43.2000004 L118.119671,43.0333888 L118.246613,43.1047938 C118.349753,43.1642979 118.397356,43.2436368 118.508431,43.5332235 C118.69091,44.0251244 118.706778,44.1917359 118.583803,44.3186781 C118.476695,44.4257855 118.167274,44.5527277 117.719009,44.671736 C117.330249,44.7748765 116.275042,44.806612 115.894216,44.7272731 Z" id="Shape"></path>
                    <path d="M104.338513,39.2528929 C103.842646,39.0704136 103.560993,38.6618185 103.557026,38.1342152 C103.557026,37.6661161 103.779175,37.3011574 104.207604,37.0750417 C104.445621,36.9480995 105.012894,36.9480995 105.25091,37.0750417 C105.619836,37.2733888 105.865786,37.6502483 105.889588,38.0667772 C105.917356,38.5071078 105.707108,38.9157028 105.322315,39.1457855 C105.127935,39.2647938 105.05653,39.2846285 104.794712,39.2965293 C104.596365,39.3044632 104.437687,39.2885954 104.338513,39.2528929 Z" id="Shape"></path>
                </g>
            </g>
        </g>
    </g>
</svg>