<?xml version="1.0" encoding="UTF-8"?>
<svg width="120px" height="118px" viewBox="0 0 120 118" version="1.1" xmlns="http://www.w3.org/2000/svg" xmlns:xlink="http://www.w3.org/1999/xlink">
    <!-- Generator: Sketch 42 (36781) - http://www.bohemiancoding.com/sketch -->
    <title>verkami</title>
    <desc>Created with Sketch.</desc>
    <defs></defs>
    <g id="Page-1" stroke="none" stroke-width="1" fill="none" fill-rule="evenodd">
        <g id="Logos" fill-rule="nonzero" fill="#A7B6A3">
            <g id="verkami">
                <g id="Group">
                    <path d="M110.390546,72.0110088 C109.797945,71.7321084 108.75841,70.6621599 108.456315,66.5782596 C108.446384,66.433829 108.395896,66.3059996 108.324718,66.1939417 C108.41245,65.4078736 108.475352,64.4640944 108.50432,63.3294009 C108.568877,60.6433239 108.407484,58.1622715 108.399207,58.0568539 C108.368584,57.5936799 107.967999,57.2624855 107.505339,57.2624855 C107.043507,57.4118963 106.692581,57.7057378 106.72486,58.1705718 C106.726515,58.1946438 106.891219,60.7113886 106.828317,63.3211005 C106.708307,68.1802774 105.932794,68.734758 105.900515,68.7555097 C105.190387,69.2195138 104.474465,69.2593568 103.994424,69.2161936 C104.094571,68.3081069 104.178992,67.2414784 104.243549,65.9847661 C104.419839,62.5466534 104.353627,59.2405204 104.351971,59.2081482 C104.34204,58.7433141 103.958835,58.3731067 103.49452,58.3830676 C103.031033,58.3930284 102.664382,58.7773464 102.673486,59.2421809 C102.675141,59.2745532 102.738043,62.5200914 102.566718,65.8942895 C102.238967,72.3040202 101.367445,73.0261733 101.331856,73.0519053 C100.247627,73.8479337 98.4433382,73.6437388 97.3665583,73.3839297 C97.7207952,72.1961125 98.0924123,70.6754409 98.4822381,68.7198169 C99.230439,64.9488503 99.6831665,61.2766601 99.6881324,61.2393076 C99.7444129,60.7794537 99.4166612,60.3577828 98.9573125,60.3021687 C98.4963084,60.2440644 98.0783424,60.5735987 98.0212341,61.0334526 C98.0162682,61.0708051 97.5701619,64.6882107 96.8335482,68.3985834 C95.4513635,75.3520042 94.3712729,76.067517 94.2529183,76.1256212 C92.1663986,77.1565568 88.4369827,76.3912406 86.2527994,75.7346625 C89.7686803,72.7564038 92.8260399,69.1888016 95.280039,65.1173523 C95.3719087,64.9637913 95.4091529,64.7903086 95.3959105,64.6234661 C95.4348104,64.5238588 95.4546741,64.415951 95.4513635,64.3022326 C95.3412853,59.4903691 92.9857776,55.4521222 89.1512491,53.4981587 C85.5534303,51.6645539 81.2612088,52.0671336 77.6691834,54.5714274 C77.6534582,54.5830484 77.6402157,54.5971594 77.6261454,54.6087804 C77.6095923,54.6220614 77.5922114,54.6311922 77.5773136,54.6461333 C76.9747806,55.2072542 76.4442533,55.7858066 75.9319343,56.3452679 C75.8731707,56.4100129 75.8168903,56.4730973 75.7572992,56.5361818 C74.2534488,50.6186773 76.4682555,49.211724 79.0083301,47.6022355 C81.0336035,46.3181311 83.2450991,44.9153281 83.4304939,41.3087132 C83.5033278,41.1742433 83.5422273,41.0181918 83.5306401,40.8530097 C82.8892072,31.3737133 76.7678664,23.5545388 68.4830344,20.2965494 L69.5142931,12.2150757 C69.5606417,11.946966 69.3586939,11.7319802 69.0599103,11.7361305 C68.7627817,11.7402808 68.4830344,11.9619071 68.4358579,12.2291867 C67.9690601,14.8588199 67.6826916,17.418728 67.572613,19.9578846 C67.0147733,19.7644803 66.4494845,19.5926577 65.8750917,19.4407566 C66.0000676,17.2859183 66.2409154,15.1194591 66.5976351,12.9314183 C66.6415005,12.6616485 66.436242,12.4491529 66.1374585,12.4574535 C65.8378471,12.4649241 65.56141,12.6882104 65.5167167,12.9571502 C65.1740673,15.0497339 64.9390133,17.1223962 64.8065883,19.1859279 C64.2446101,19.0639089 63.6751832,18.9634715 63.0999626,18.8846157 C63.2241106,17.2062324 63.4070227,15.5187184 63.6627682,13.8162633 C63.7024956,13.5473236 63.4922712,13.3389783 63.1934877,13.348939 C62.8947037,13.3588997 62.618267,13.5863364 62.5777118,13.8552762 C62.3318981,15.5021172 62.1473307,17.1356772 62.0215274,18.7617667 C61.4636872,18.711133 60.9000537,18.6795906 60.33311,18.6687999 C60.431601,17.4145777 60.5574043,16.1479046 60.7154868,14.8638003 C60.7477655,14.5956906 60.5334026,14.3914956 60.2321359,14.409757 C59.9333523,14.4255281 59.6618812,14.6571151 59.6296025,14.9252248 C59.4731757,16.1894077 59.3465445,17.4361593 59.2480536,18.6721201 C58.9136807,18.6795906 58.57848,18.6945318 58.2407965,18.7169434 C57.9949828,18.7335446 57.7508244,18.7542961 57.506666,18.7791979 C57.5794999,17.8885425 57.6655759,16.9920766 57.7673775,16.0873102 C57.7963456,15.8200305 57.5778446,15.6191558 57.2774053,15.6382472 C56.9769665,15.6581686 56.7104612,15.8914158 56.6798383,16.1586954 C56.5755535,17.0858735 56.4886497,18.003921 56.4141609,18.9169881 C55.8273531,19.0024844 55.2455112,19.1095622 54.6686352,19.2382217 C54.7149838,18.6538587 54.7687815,18.0678357 54.8267173,17.4784924 C54.85403,17.2112128 54.6330459,17.0119981 54.3309518,17.0344098 C54.0313404,17.0568214 53.7648351,17.2942189 53.7391781,17.5614985 C53.6729653,18.2155865 53.615857,18.8655243 53.5645425,19.5138019 C52.9769073,19.6756638 52.3958929,19.8599374 51.8215001,20.0657925 C51.8496403,19.7221472 51.8761252,19.3801621 51.9059207,19.0356868 C51.9282676,18.7692372 51.7056282,18.5725128 51.4027061,18.5974146 C51.1022673,18.6248066 50.8399005,18.8597139 50.8167262,19.1278236 C50.776171,19.5868473 50.7397542,20.0433808 50.7058202,20.4990843 C49.3790885,21.0535651 48.1020156,21.7259144 46.8952939,22.5153025 C44.0051207,24.4061814 41.5188434,26.9577889 39.6897246,29.900355 C36.0091402,32.090886 32.7696963,30.6507302 31.1541126,29.5841018 C27.5049792,27.1736047 25.3828703,22.5352239 25.9473314,18.2471289 C28.6951479,14.0437 31.3833732,12.1196187 35.6615249,9.20361444 C35.8551963,9.15796107 36.0298316,9.04258263 36.151497,8.87159004 C36.1672224,8.85913915 36.1854308,8.84834833 36.2011563,8.83672748 L36.297992,8.7703226 C39.8511174,6.35235496 43.7617902,4.51543001 47.9182761,3.31018145 C69.65665,-2.99828203 92.4585609,9.60453388 98.7553646,31.4019354 C98.8861343,31.9174032 101.048798,40.3748946 101.611604,42.3853023 C101.930251,43.5216559 103.53342,45.1427649 106.134742,47.678601 C107.612107,49.1162669 110.083486,51.525104 110.203496,52.2157144 C110.628911,55.3500247 111.468982,69.0817235 111.645272,71.9769765 C111.321659,72.1081261 110.843274,72.2235045 110.390546,72.0110088 L110.390546,72.0110088 L110.390546,72.0110088 Z M47.6319076,42.1462447 C47.6319076,35.112308 53.3137629,29.4529521 60.3678715,29.4529521 C67.4608796,29.4529521 73.064108,35.112308 73.064108,42.1462447 C73.064108,49.2623575 67.4608796,54.9217135 60.3678715,54.9217135 C53.3137629,54.9217135 47.6319076,49.2623575 47.6319076,42.1462447 L47.6319076,42.1462447 L47.6319076,42.1462447 Z M64.2520592,83.7455809 C53.3998393,85.2222594 42.6221082,82.3734901 33.9052398,75.7222116 C25.1891989,69.070103 19.5768665,59.4123431 18.1036395,48.5277535 C17.6658097,45.2905157 17.5366955,42.6509218 17.6997436,40.2180131 C17.6997436,40.2080523 17.6980883,40.1997517 17.6997436,40.1906211 C17.6997436,40.1607389 17.6980883,40.1300266 17.696433,40.1009745 C17.6931224,40.0752426 17.6931224,40.0495107 17.6881564,40.0229488 C17.6831905,39.9972169 17.6765693,39.9698248 17.6691204,39.9440929 C17.6624991,39.917531 17.6558779,39.8917991 17.645946,39.8660672 C17.6368418,39.8419954 17.6252546,39.8170936 17.6128398,39.7930219 C17.6012526,39.7689501 17.5888378,39.7423881 17.57394,39.7199765 C17.5606975,39.6975648 17.544972,39.6776434 17.5300742,39.6568918 C17.5118658,39.6328201 17.4936574,39.6079182 17.4721383,39.5871667 C17.4671724,39.5805262 17.4622065,39.5722256 17.4555852,39.5664152 C17.4332385,39.5431735 15.1687729,37.2654861 13.0036259,34.7263296 C9.01846432,30.0588967 9.08550442,28.8818702 9.10122988,28.7797727 C9.6690016,27.5346812 10.3634046,26.5120461 10.8326853,25.8878402 C11.7869722,28.8353868 12.9920387,31.4716605 13.0433534,31.5828886 C13.193159,31.9107627 13.5258765,32.0958663 13.8635601,32.0709645 C13.962051,32.0659841 14.0613697,32.0402523 14.1565501,31.996259 C14.5778268,31.8020248 14.762394,31.302328 14.5687226,30.879827 C11.7414512,24.7108138 10.8037174,19.7611601 11.703379,19.0074647 C12.5947641,18.2604098 13.3893134,17.6669162 13.9686723,17.255206 C13.9653617,17.8760916 13.9769488,18.5633821 14.0026062,19.3278683 C14.1143397,22.5675963 14.466921,25.7517102 14.4694039,25.7840826 C14.5207186,26.2331456 14.9146826,26.5610197 15.360789,26.5294774 C15.3732038,26.5294774 15.3856187,26.5286473 15.3980335,26.5269872 C15.85821,26.4763535 16.1909275,26.0580027 16.1387852,25.5973189 C16.1354746,25.5682667 15.8159995,22.6846349 15.6951618,19.6416313 C15.4799714,14.2661564 16.076711,13.2186194 16.1867892,13.0750189 C17.9927337,12.3379247 20.1454658,11.7817839 21.5822759,11.4522496 C21.2594903,12.1262591 20.9135302,12.8766343 20.5402576,13.7208063 C19.0529605,17.0908539 17.8512046,20.3571439 17.8387897,20.3903463 C17.6782246,20.8261284 17.9016916,21.3092238 18.3362108,21.4702557 C18.4512549,21.5142489 18.5696096,21.52836 18.6829985,21.5200593 C19.0041288,21.4993078 19.2962912,21.2934527 19.4146459,20.9722191 C22.6118795,12.2681996 25.306726,7.73025617 26.198111,7.29032387 C28.1762079,6.31168198 31.6324975,7.48704832 33.7612277,8.46652029 C29.9142846,11.1135848 27.1747446,13.2426912 24.4335494,17.4884531 C24.4327217,17.4917734 24.431894,17.4950936 24.4294111,17.4984139 C24.4120303,17.5241458 24.3996155,17.554858 24.3847177,17.5839101 C24.3747858,17.6054917 24.3631986,17.6262432 24.3549221,17.6486549 C24.3458179,17.6702365 24.3416796,17.6934782 24.3350584,17.7150598 C24.3267818,17.7474321 24.3160223,17.7789745 24.3110563,17.8121769 C24.3102287,17.8154971 24.3085734,17.8179873 24.3085734,17.8221376 C23.569477,22.7834121 26.0044396,28.1979 30.230449,30.9902251 C32.167163,32.2693491 34.260304,32.839601 36.3211664,32.7001507 C37.8341208,32.5963931 39.3313497,32.1099774 40.7342259,31.2375833 C40.7433301,31.2326029 40.748296,31.2267925 40.7565726,31.2218121 C40.7805746,31.2052109 40.8037489,31.1861195 40.8260957,31.166198 C40.8476147,31.1504269 40.8683061,31.1321655 40.8873422,31.1147342 C40.9055506,31.0948128 40.921276,31.0757214 40.9378291,31.05663 C40.9568652,31.0317282 40.976729,31.0076564 40.9932821,30.9819245 C40.998248,30.975284 41.0048692,30.9686435 41.0090075,30.9603429 C42.4317475,28.6228912 44.3014215,26.5477387 46.4698791,24.8826364 C47.7593662,33.0894493 44.8162232,35.0201712 41.7042382,37.0612911 C38.5922533,39.100751 35.3735008,41.2099359 37.3507699,49.1992731 C37.3524252,49.2050833 37.3549082,49.2100635 37.3557358,49.2167043 C37.3573911,49.2216845 37.3573911,49.2266651 37.3590464,49.2316453 C38.9589047,54.778943 42.4797515,59.257122 46.9871636,62.1523746 L44.5687542,70.0263331 C44.4760566,70.2828221 44.6399324,70.5293502 44.9337505,70.5758335 C45.2283955,70.6231469 45.5412494,70.4529843 45.633947,70.1964957 C46.5485064,67.6631493 47.2727047,65.1663262 47.8156471,62.6595418 C48.3296209,62.960024 48.8543545,63.2405844 49.3906757,63.4995635 C48.8990482,65.6120686 48.2932042,67.7146133 47.5623843,69.8204781 C47.474653,70.0786267 47.6418394,70.3218347 47.9373123,70.3658279 C48.2319578,70.4106511 48.5431564,70.2371684 48.6333708,69.9798498 C49.3286014,67.9744224 49.9129261,65.9689949 50.3946217,63.9569272 C50.9259765,64.183534 51.4689188,64.3910491 52.0176542,64.5778129 C51.6112752,66.202242 51.1444778,67.8250116 50.6065014,69.4511008 C50.5212529,69.7092498 50.6934052,69.9507977 50.989706,69.9906403 C51.2860068,70.0329734 51.59555,69.8561705 51.6807986,69.5988516 C52.1997383,68.0325266 52.6541216,66.4678618 53.0538793,64.9031965 C53.5951659,65.0592481 54.1430738,65.1953783 54.6959476,65.3107568 C54.3905428,66.5068744 54.05617,67.7096331 53.688691,68.9223518 C53.6100637,69.1821609 53.7888373,69.4203886 54.0867934,69.4544209 C54.3855769,69.4884537 54.6909817,69.3066702 54.7704368,69.0476911 C55.1304667,67.8590439 55.4590462,66.678697 55.7611404,65.506651 C56.3330504,65.5987876 56.9090989,65.6685128 57.4909408,65.7174866 C57.2740947,66.5475474 57.0464894,67.3825889 56.802331,68.2226105 C56.7278422,68.4815896 56.9090989,68.7164968 57.2078825,68.748869 C57.506666,68.7812417 57.8112433,68.5969681 57.88656,68.337159 C58.1356843,67.4797061 58.3682556,66.6272335 58.5884118,65.778911 C59.1768749,65.7988323 59.7686487,65.7971723 60.3620777,65.7689502 C60.2246868,66.2960391 60.0823304,66.8247877 59.936663,67.3551968 C59.863829,67.6141759 60.0483964,67.847423 60.3488352,67.8764751 C60.6492741,67.9063573 60.9505408,67.7195935 61.0233747,67.4606144 C61.1864227,66.8687809 61.3428498,66.2786079 61.4943106,65.6900946 C62.0976715,65.6311603 62.7018602,65.5489841 63.3052211,65.4419064 C63.2307318,65.7349178 63.156243,66.0270992 63.0784432,66.3201106 C63.0105756,66.5799197 63.1984536,66.8115067 63.4988924,66.8372387 C63.8001591,66.8638007 64.100598,66.6753769 64.168466,66.4163978 C64.2752335,66.0104981 64.3786904,65.6054283 64.480492,65.2020186 C64.8810771,65.1082219 65.2808348,65.004464 65.6814204,64.8874254 C68.0460321,64.2001352 71.0156604,62.6628619 73.623603,60.7744735 C75.207736,59.6298191 76.2050608,58.5382891 77.1701073,57.4849417 C77.6691834,56.9387614 78.141775,56.4232939 78.6780957,55.9186168 C81.7884251,53.7737389 85.3249975,53.4367343 88.3914615,54.9997391 C91.6648393,56.6681614 93.6760423,60.1602282 93.772878,64.3429057 C93.772878,64.3470559 93.7745333,64.350376 93.7745333,64.3553562 C87.3121984,75.0033786 76.5609526,82.0688578 64.2520592,83.7455809 L64.2520592,83.7455809 L64.2520592,83.7455809 Z M111.868739,51.989108 C111.708174,50.8120813 110.030517,49.1245672 107.305047,46.4683724 C105.677048,44.8829558 103.448172,42.7106862 103.228015,41.9279387 C102.665209,39.917531 100.400744,31.0591202 100.378397,30.9703036 C100.375086,30.962003 100.373431,30.9545325 100.371776,30.9462319 C93.8233651,8.24904429 70.0828926,-4.87338979 47.4514787,1.69239259 C43.1261505,2.94578468 39.0573957,4.8574151 35.3602583,7.37499011 C33.7181896,6.53247821 28.6463162,4.20249701 25.455704,5.7796129 C24.8978641,6.05519311 24.0395853,6.77734618 22.5605648,9.52069772 C21.5177188,9.72572279 18.1955093,10.4296145 15.4998351,11.5369159 C14.8501255,11.8025354 14.2517305,12.4972964 14.0448166,15.1717529 C13.9057705,15.2572492 12.4797199,16.1620157 10.6257714,17.7150598 C9.51588533,18.6455582 9.39421993,20.6526456 10.2649136,23.9662491 C10.2135989,24.0044319 10.163112,24.0442748 10.1200739,24.0932484 C10.059655,24.1596532 8.62615555,25.7633311 7.56758409,28.0958024 C7.15541164,29.0055493 7.31018322,30.6150375 11.5891625,35.6593181 C13.4025559,37.7975552 15.3144402,39.781401 16.0013944,40.4852927 C15.8681418,42.9281622 16.0088433,45.567756 16.4400519,48.7543603 C17.9736976,60.0855227 23.8152907,70.1383915 32.888051,77.0627601 C41.1819876,83.3919752 51.2669705,86.4133971 61.5671441,85.7103353 C62.5355012,85.6455908 63.507169,85.5451534 64.4771814,85.4131737 C71.95836,84.3955187 78.8850095,81.4612531 84.6951518,76.9930349 C85.5434985,77.2976673 89.1512491,78.5054062 92.3228253,78.2895903 C93.2837337,78.2231853 94.2049144,78.0272911 94.9969806,77.636332 C95.5092992,77.3823336 96.1267304,76.7996309 96.8285822,74.9826273 C97.4849134,75.1511294 98.5724526,75.360305 99.7171005,75.2822794 C100.612624,75.2208546 101.542081,74.9842874 102.32256,74.4123752 C102.805911,74.0587694 103.354647,73.2934531 103.765164,70.8796358 C104.013461,70.9053678 104.301484,70.9169883 104.616821,70.8954069 C105.274807,70.8505837 106.048665,70.6505389 106.815075,70.150012 C106.952465,70.0603655 107.093167,69.944157 107.233868,69.7798051 C107.715564,71.7545199 108.524183,72.9888208 109.679591,73.5300204 C110.186943,73.7682481 110.688503,73.8296725 111.142885,73.7989603 C112.174145,73.7292351 112.957934,73.1780747 113.003455,73.1440423 C113.237682,72.9755398 113.370107,72.6982995 113.352726,72.4094383 C113.312171,71.7221476 112.34878,55.5409386 111.868739,51.989108 L111.868739,51.989108 Z M53.9800258,42.2649435 C53.9800258,41.4788757 54.0189253,40.8496895 54.0958973,40.1042947 C52.2940913,39.7490286 51.2363476,39.4751085 50.4136579,39.1215025 C50.1388761,40.0652818 49.9824494,41.1252697 49.9824494,42.1462447 C49.9824494,42.6592224 49.9824494,43.1697099 50.0602488,43.6005115 C50.5700846,44.1906849 51.8637102,44.977583 54.214252,45.4100443 C54.0578253,44.4272521 53.9800258,43.3265913 53.9800258,42.2649435 L53.9800258,42.2649435 Z M56.370295,51.7375993 C55.4689781,50.4808869 54.8821703,48.8697388 54.4890338,46.98301 C52.9214543,46.6294042 51.511129,46.1961123 50.5700846,45.6839645 C51.1577203,47.1398916 51.9026101,48.437277 53.0389811,49.4972647 C53.9800258,50.5198999 55.1552968,51.2271119 56.370295,51.7375993 L56.370295,51.7375993 L56.370295,51.7375993 Z M56.605349,32.5573803 C55.2728235,33.1865665 54.0958973,33.7360668 53.0389811,34.8757406 C52.138492,35.7024813 51.4714016,36.7242864 51.0012931,37.7452614 C51.3547022,38.0598545 51.9423375,38.0988674 54.2531519,38.7280536 C54.6843604,36.2129688 55.4300781,34.1303458 56.605349,32.5573803 L56.605349,32.5573803 L56.605349,32.5573803 Z M55.2695129,42.2649435 C55.2695129,43.4046173 55.3489681,44.6239768 55.5053948,45.6839645 C56.8379203,45.9205321 57.6862674,46.0375707 59.3415786,46.0782438 L59.3415786,40.5359264 C57.6862674,40.4969136 56.6425936,40.4188878 55.3084129,40.2611762 C55.3084129,40.9683882 55.2695129,41.5569014 55.2695129,42.2649435 L55.2695129,42.2649435 L55.2695129,42.2649435 Z M55.5053948,39.0409866 C56.7990204,39.1588553 57.6862674,39.1215025 59.3415786,39.1605154 L59.3415786,32.1797025 C57.643229,33.085299 56.1120663,35.5372992 55.5053948,39.0409866 L55.5053948,39.0409866 L55.5053948,39.0409866 Z M59.3415786,32.0825854 L59.3415786,32.1797025 C59.3970312,32.1506504 59.4500014,32.1083173 59.5054544,32.0825854 C59.5435265,32.0825854 59.3415786,32.0825854 59.3415786,32.0825854 L59.3415786,32.0825854 L59.3415786,32.0825854 Z M56.8553012,49.9687395 C57.442109,51.3839935 58.513923,52.5236673 59.3415786,52.5236673 L59.3415786,47.4544848 C58.513923,47.4138117 57.0332469,47.3357861 55.857976,47.2179175 C56.0930305,48.2405523 56.3851928,49.1436589 56.8553012,49.9687395 L56.8553012,49.9687395 L56.8553012,49.9687395 Z M62.0347698,32.4004987 C61.6821886,32.1647614 60.9968898,31.8509984 60.9968898,31.8509984 L60.9968898,39.1605154 C62.6522006,39.1215025 63.699185,39.0426467 65.0317105,38.9256081 C64.5210472,36.0951002 63.3681227,33.6190282 62.0347698,32.4004987 L62.0347698,32.4004987 L62.0347698,32.4004987 Z M65.2460734,42.2649435 C65.2460734,41.5569014 65.2171053,40.9683882 65.1782058,40.3001891 C63.8465077,40.4188878 62.6522006,40.4969136 60.9968898,40.5359264 L60.9968898,46.0782438 C62.6522006,46.0375707 63.699185,45.9205321 64.9911552,45.7229775 C65.1881376,44.6629897 65.2460734,43.44529 65.2460734,42.2649435 L65.2460734,42.2649435 L65.2460734,42.2649435 Z M64.6418846,47.2179175 C63.4260589,47.3357861 62.6522006,47.4138117 60.9968898,47.4544848 L60.9968898,52.5236673 C63.4798562,52.5236673 64.1328767,48.9867773 64.6418846,47.2179175 L64.6418846,47.2179175 L64.6418846,47.2179175 Z M69.6938946,37.7842742 C68.5972505,35.3480453 66.5206631,33.3824608 64.0906661,32.5183674 C65.265937,34.05066 66.009172,36.2129688 66.402308,38.7687266 C68.5186237,38.3744476 69.3802129,38.0208416 69.6938946,37.7842742 L69.6938946,37.7842742 L69.6938946,37.7842742 Z M64.2859928,51.7375993 C65.5001636,51.2271119 66.7159897,50.5198999 67.6570341,49.4972647 C68.7528498,48.4754599 69.4977401,47.2179175 70.0075759,45.8416761 C68.9887317,46.314811 67.6570341,46.7074297 66.2069814,47.0211929 C65.7749454,48.9087518 65.2270371,50.4410443 64.2859928,51.7375993 L64.2859928,51.7375993 L64.2859928,51.7375993 Z M66.6770898,42.2649435 C66.6770898,43.3265913 66.5976351,44.4646051 66.4801079,45.4490573 C70.5571391,44.7808583 70.7135662,43.8379092 70.7135662,42.1462447 C70.7135662,41.1642826 70.5571391,40.1042947 70.2434578,39.1605154 C69.4977401,39.4751085 68.166042,39.9474132 66.5976351,40.1042947 C66.6770898,40.8496895 66.6770898,41.4788757 66.6770898,42.2649435 L66.6770898,42.2649435 L66.6770898,42.2649435 Z" id="Fill-1-Copy"></path>
                    <path d="M4.61261874,117.513395 C4.65711297,117.602384 4.73126994,117.676541 4.86475252,117.676541 L5.0130665,117.676541 C5.14654904,117.676541 5.22070605,117.602384 5.26520023,117.513395 L9.86293326,107.531865 C9.95192166,107.339057 9.83327047,107.146249 9.61079952,107.146249 L8.09799704,107.146249 C7.96451445,107.146249 7.87552609,107.235237 7.84586331,107.309394 L4.9982351,113.686895 L4.89441531,113.686895 L2.0467871,107.309394 C2.0171243,107.235237 1.92813592,107.146249 1.79465335,107.146249 L0.281850867,107.146249 C0.0593799136,107.146249 -0.0592712612,107.339057 0.02971712,107.531865 L4.61261874,117.513395 Z M20.4822135,117.24643 C20.4822135,117.394744 20.6008646,117.528227 20.76401,117.528227 L26.8003885,117.528227 C26.9635339,117.528227 27.0821851,117.394744 27.0821851,117.24643 L27.0821851,116.030256 C27.0821851,115.881941 26.9635339,115.748459 26.8003885,115.748459 L22.4102951,115.748459 L22.4102951,113.152965 L26.0736501,113.152965 C26.2219641,113.152965 26.3554466,113.034313 26.3554466,112.871168 L26.3554466,111.640162 C26.3554466,111.491848 26.2219641,111.358365 26.0736501,111.358365 L22.4102951,111.358365 L22.4102951,108.926017 L26.8003885,108.926017 C26.9635339,108.926017 27.0821851,108.792534 27.0821851,108.64422 L27.0821851,107.428045 C27.0821851,107.279731 26.9635339,107.146249 26.8003885,107.146249 L20.76401,107.146249 C20.6008646,107.146249 20.4822135,107.279731 20.4822135,107.428045 L20.4822135,117.24643 Z M38.4726979,117.24643 C38.4726979,117.394744 38.5913491,117.528227 38.7544944,117.528227 L40.118983,117.528227 C40.2672969,117.528227 40.4007795,117.394744 40.4007795,117.24643 L40.4007795,113.464424 L42.0470646,113.464424 L44.0196403,117.394744 C44.0493032,117.45407 44.1234602,117.528227 44.2569427,117.528227 L45.8142394,117.528227 C46.0663733,117.528227 46.1701928,117.290924 46.0663733,117.098116 L44.0344718,113.330942 C45.3248032,112.811842 46.2295187,111.699488 46.2295187,110.334999 C46.2295187,108.570063 44.7760414,107.146249 42.996274,107.146249 L38.7544944,107.146249 C38.5913491,107.146249 38.4726979,107.279731 38.4726979,107.428045 L38.4726979,117.24643 Z M40.4156109,111.877464 L40.4156109,108.926017 L42.8331286,108.926017 C43.6191925,108.926017 44.3014367,109.578598 44.3014367,110.364662 C44.3014367,111.19522 43.6191925,111.877464 42.8331286,111.877464 L40.4156109,111.877464 Z M57.6200313,117.172273 C57.6200313,117.365081 57.7683453,117.528227 57.9759847,117.528227 L59.2811476,117.528227 C59.473956,117.528227 59.6371014,117.365081 59.6371014,117.172273 L59.6371014,112.648697 L63.508096,117.424407 C63.5377586,117.468901 63.626747,117.528227 63.7750609,117.528227 L65.3916832,117.528227 C65.688311,117.528227 65.8069625,117.201936 65.6586485,117.009128 L61.5058575,112.04061 L65.3768517,107.680179 C65.5696601,107.457708 65.4213461,107.146249 65.1395497,107.146249 L63.65641,107.146249 C63.5229271,107.146249 63.4339391,107.220406 63.3746131,107.294563 L59.6371014,111.506679 L59.6371014,107.502202 C59.6371014,107.309394 59.473956,107.146249 59.2811476,107.146249 L57.9759847,107.146249 C57.7683453,107.146249 57.6200313,107.309394 57.6200313,107.502202 L57.6200313,117.172273 Z M75.5066959,117.528227 L76.7970277,117.528227 C77.0343297,117.528227 77.1678126,117.379913 77.2271381,117.231599 L77.9538767,115.629808 L82.3884641,115.629808 L83.1152027,117.231599 C83.2190222,117.439238 83.3228422,117.528227 83.5453131,117.528227 L84.8356445,117.528227 C85.0581154,117.528227 85.1767668,117.335419 85.0877783,117.14261 L80.519708,107.16108 C80.475214,107.072092 80.4158885,106.997935 80.2675746,106.997935 L80.1192602,106.997935 C79.9857778,106.997935 79.9116208,107.072092 79.8671268,107.16108 L75.254562,117.14261 C75.165574,117.335419 75.284225,117.528227 75.5066959,117.528227 L75.5066959,117.528227 Z M78.6806149,113.983523 L80.1340917,110.720615 L80.1785861,110.720615 L81.6617255,113.983523 L78.6806149,113.983523 Z M95.0248142,117.187105 C94.9951516,117.394744 95.1138026,117.528227 95.306611,117.528227 L96.6414364,117.528227 C96.7749193,117.528227 96.8935703,117.409576 96.9084017,117.305756 L97.7686228,111.684656 L97.8131168,111.684656 L100.438274,117.513395 C100.482769,117.602384 100.556925,117.676541 100.690408,117.676541 L100.957373,117.676541 C101.090856,117.676541 101.179844,117.602384 101.209507,117.513395 L103.805001,111.684656 L103.849495,111.684656 L104.724548,117.305756 C104.754211,117.409576 104.872862,117.528227 105.006344,117.528227 L106.356002,117.528227 C106.54881,117.528227 106.667461,117.394744 106.622967,117.187105 L104.872862,107.220406 C104.85803,107.101755 104.769042,106.997935 104.605897,106.997935 L104.368594,106.997935 C104.235112,106.997935 104.160955,107.057261 104.116461,107.146249 L100.853553,114.146668 L100.809059,114.146668 L97.5461519,107.146249 C97.5016575,107.057261 97.412669,106.997935 97.2940181,106.997935 L97.0567157,106.997935 C96.8935703,106.997935 96.8045818,107.101755 96.7897503,107.220406 L95.0248142,117.187105 Z M117.924491,117.24643 C117.924491,117.394744 118.057974,117.528227 118.206288,117.528227 L119.585608,117.528227 C119.733921,117.528227 119.867404,117.394744 119.867404,117.24643 L119.867404,107.428045 C119.867404,107.279731 119.733921,107.146249 119.585608,107.146249 L118.206288,107.146249 C118.057974,107.146249 117.924491,107.279731 117.924491,107.428045 L117.924491,117.24643 Z" id="VERKAMI-Copy-3"></path>
                </g>
            </g>
        </g>
    </g>
</svg>