<?xml version="1.0" encoding="UTF-8"?>
<svg width="854px" height="768px" viewBox="0 0 854 768" version="1.1" xmlns="http://www.w3.org/2000/svg" xmlns:xlink="http://www.w3.org/1999/xlink">
    <!-- Generator: Sketch 48.2 (47327) - http://www.bohemiancoding.com/sketch -->
    <title>Slice</title>
    <desc>Created with Sketch.</desc>
    <defs>
        <linearGradient x1="0%" y1="34.6909173%" x2="100%" y2="65.3090827%" id="linearGradient-1">
            <stop stop-color="#FFFFFF" offset="0%"></stop>
            <stop stop-color="#FEFEFE" offset="100%"></stop>
        </linearGradient>
        <linearGradient x1="0%" y1="37.4869647%" x2="100%" y2="62.5130353%" id="linearGradient-2">
            <stop stop-color="#FFFFFF" offset="0%"></stop>
            <stop stop-color="#FEFEFE" offset="100%"></stop>
        </linearGradient>
        <rect id="path-3" x="0" y="0" width="750" height="1624" rx="85"></rect>
        <rect id="path-5" x="0" y="0" width="750" height="1624" rx="85"></rect>
        <linearGradient x1="0%" y1="38.2321171%" x2="100%" y2="61.7678829%" id="linearGradient-7">
            <stop stop-color="#FFFFFF" offset="0%"></stop>
            <stop stop-color="#FEFEFE" offset="100%"></stop>
        </linearGradient>
    </defs>
    <g id="Page-1" stroke="none" stroke-width="1" fill="none" fill-rule="evenodd">
        <g id="iphone-white">
            <g id="body">
                <g id="path-2-link" transform="translate(2.000000, 1.000000)" fill="#000000" fill-rule="nonzero">
                    <path d="M21.9980611,635.339596 L7,635.339596 C3.13400675,635.339596 -1.1321339e-13,632.20559 -1.13686838e-13,628.339596 L-1.13686838e-13,519.95446 C-1.14160285e-13,516.088467 3.13400675,512.95446 7,512.95446 L21.9980611,512.95446 L21.9980611,479.850284 L7,479.850284 C3.13400675,479.850284 -1.1321339e-13,476.716277 -1.13686838e-13,472.850284 L-1.13686838e-13,364.465148 C-1.14160285e-13,360.599154 3.13400675,357.465148 7,357.465148 L21.9980611,357.465148 L21.9980611,298.278893 L7,298.278893 C3.13400675,298.278893 -1.09779698e-13,295.144887 -1.13686838e-13,291.278893 L-1.13686838e-13,237.064227 C-1.14160285e-13,233.198234 3.13400675,230.064227 7,230.064227 L21.9980611,230.064227 L21.9980611,128.839647 C21.9980611,84.2637095 26.6393417,68.0993977 35.3546963,51.8031014 C44.070051,35.5068051 56.8594797,22.7173764 73.155776,14.0020217 C89.4520722,5.28666709 105.616384,0.645386537 150.192321,0.645386537 L721.922511,0.645386537 C766.498448,0.645386537 782.66276,5.28666709 798.959056,14.0020217 C815.255352,22.7173764 828.044781,35.5068051 836.760136,51.8031014 C845.47549,68.0993977 850.116771,84.2637095 850.116771,128.839647 L850.116771,1571.79884 C850.116771,1616.37477 845.47549,1632.53909 836.760136,1648.83538 C828.044781,1665.13168 815.255352,1677.92111 798.959056,1686.63646 C782.66276,1695.35182 766.498448,1699.9931 721.922511,1699.9931 L150.192321,1699.9931 C105.616384,1699.9931 89.4520722,1695.35182 73.155776,1686.63646 C56.8594797,1677.92111 44.070051,1665.13168 35.3546963,1648.83538 C26.6393417,1632.53909 21.9980611,1616.37477 21.9980611,1571.79884 L21.9980611,635.339596 Z" id="path-2"></path>
                </g>
                <g id="path-2-link" transform="translate(2.000000, 1.000000)" fill="url(#linearGradient-2)">
                    <path d="M21.9980611,635.339596 L7,635.339596 C3.13400675,635.339596 -1.1321339e-13,632.20559 -1.13686838e-13,628.339596 L-1.13686838e-13,519.95446 C-1.14160285e-13,516.088467 3.13400675,512.95446 7,512.95446 L21.9980611,512.95446 L21.9980611,479.850284 L7,479.850284 C3.13400675,479.850284 -1.1321339e-13,476.716277 -1.13686838e-13,472.850284 L-1.13686838e-13,364.465148 C-1.14160285e-13,360.599154 3.13400675,357.465148 7,357.465148 L21.9980611,357.465148 L21.9980611,298.278893 L7,298.278893 C3.13400675,298.278893 -1.09779698e-13,295.144887 -1.13686838e-13,291.278893 L-1.13686838e-13,237.064227 C-1.14160285e-13,233.198234 3.13400675,230.064227 7,230.064227 L21.9980611,230.064227 L21.9980611,128.839647 C21.9980611,84.2637095 26.6393417,68.0993977 35.3546963,51.8031014 C44.070051,35.5068051 56.8594797,22.7173764 73.155776,14.0020217 C89.4520722,5.28666709 105.616384,0.645386537 150.192321,0.645386537 L721.922511,0.645386537 C766.498448,0.645386537 782.66276,5.28666709 798.959056,14.0020217 C815.255352,22.7173764 828.044781,35.5068051 836.760136,51.8031014 C845.47549,68.0993977 850.116771,84.2637095 850.116771,128.839647 L850.116771,1571.79884 C850.116771,1616.37477 845.47549,1632.53909 836.760136,1648.83538 C828.044781,1665.13168 815.255352,1677.92111 798.959056,1686.63646 C782.66276,1695.35182 766.498448,1699.9931 721.922511,1699.9931 L150.192321,1699.9931 C105.616384,1699.9931 89.4520722,1695.35182 73.155776,1686.63646 C56.8594797,1677.92111 44.070051,1665.13168 35.3546963,1648.83538 C26.6393417,1632.53909 21.9980611,1616.37477 21.9980611,1571.79884 L21.9980611,635.339596 Z" id="path-2"></path>
                </g>
                <path d="M22.5980611,637.739596 L9,637.739596 C4.3608081,637.739596 0.6,633.978788 0.6,629.339596 L0.6,520.95446 C0.6,516.315268 4.3608081,512.55446 9,512.55446 L22.5980611,512.55446 L22.5980611,482.250284 L9,482.250284 C4.3608081,482.250284 0.6,478.489476 0.6,473.850284 L0.6,365.465148 C0.6,360.825956 4.3608081,357.065148 9,357.065148 L22.5980611,357.065148 L22.5980611,300.678893 L9,300.678893 C4.3608081,300.678893 0.6,296.918085 0.6,292.278893 L0.6,238.064227 C0.6,233.425035 4.3608081,229.664227 9,229.664227 L22.5980611,229.664227 L22.5980611,129.839647 C22.5980611,88.9874647 26.092144,70.8936186 36.1201578,52.142863 C44.9659922,35.6025908 57.9552654,22.6133176 74.4955376,13.7674832 C93.2462932,3.7394694 111.340139,0.245386537 152.192321,0.245386537 L723.922511,0.245386537 C764.774693,0.245386537 782.868539,3.7394694 801.619294,13.7674832 C818.159567,22.6133176 831.14884,35.6025908 839.994674,52.142863 C850.022688,70.8936186 853.516771,88.9874647 853.516771,129.839647 L853.516771,1572.79884 C853.516771,1613.65102 850.022688,1631.74487 839.994674,1650.49562 C831.14884,1667.03589 818.159567,1680.02517 801.619294,1688.871 C782.868539,1698.89901 764.774693,1702.3931 723.922511,1702.3931 L152.192321,1702.3931 C111.340139,1702.3931 93.2462932,1698.89901 74.4955376,1688.871 C57.9552654,1680.02517 44.9659922,1667.03589 36.1201578,1650.49562 C26.092144,1631.74487 22.5980611,1613.65102 22.5980611,1572.79884 L22.5980611,637.739596 Z" id="Shape" stroke-opacity="0.04" stroke="#000000" stroke-width="2.8"></path>
            </g>
            <g id="📱Change-this-screen" transform="translate(62.000000, 37.000000)">
                <path d="M85,0 L665,0 C711.944204,-8.62351033e-15 750,38.0557963 750,85 L750,1539 C750,1585.9442 711.944204,1624 665,1624 L85,1624 C38.0557963,1624 5.74900688e-15,1585.9442 0,1539 L0,85 C-5.74900688e-15,38.0557963 38.0557963,8.62351033e-15 85,0 Z" id="masked-area" fill="#FF3B3B"></path>
                <g id="mask" fill="#D8D8D8" stroke="#979797">
                    <rect id="path-4" x="0" y="0" width="750" height="1624" rx="85"></rect>
                </g>
                <g id="Rectangle-Clipped">
                    <mask id="mask-4" fill="white">
                        <use xlink:href="#path-3"></use>
                    </mask>
                    <g id="path-4"></g>
                    <rect id="Rectangle" fill="#1E1F3D" mask="url(#mask-4)" x="0" y="0" width="756" height="1630"></rect>
                </g>
                <g id="react-Clipped">
                    <mask id="mask-6" fill="white">
                        <use xlink:href="#path-5"></use>
                    </mask>
                    <g id="path-4"></g>
                    <g id="react" mask="url(#mask-6)">
                        <g transform="translate(129.000000, 180.000000)" id="Group">
                            <g>
                                <path d="M491.3,218.5 C491.3,186 450.6,155.2 388.2,136.1 C402.6,72.5 396.2,21.9 368,5.7 C361.5,1.9 353.9,0.1 345.6,0.1 L345.6,22.4 C350.2,22.4 353.9,23.3 357,25 C370.6,32.8 376.5,62.5 371.9,100.7 C370.8,110.1 369,120 366.8,130.1 C347.2,125.3 325.8,121.6 303.3,119.2 C289.8,100.7 275.8,83.9 261.7,69.2 C294.3,38.9 324.9,22.3 345.7,22.3 L345.7,0 C345.7,0 345.7,0 345.7,0 C318.2,0 282.2,19.6 245.8,53.6 C209.4,19.8 173.4,0.4 145.9,0.4 L145.9,22.7 C166.6,22.7 197.3,39.2 229.9,69.3 C215.9,84 201.9,100.7 188.6,119.2 C166,121.6 144.6,125.3 125,130.2 C122.7,120.2 121,110.5 119.8,101.2 C115.1,63 120.9,33.3 134.4,25.4 C137.4,23.6 141.3,22.8 145.9,22.8 L145.9,0.5 C145.9,0.5 145.9,0.5 145.9,0.5 C137.5,0.5 129.9,2.3 123.3,6.1 C95.2,22.3 88.9,72.8 103.4,136.2 C41.2,155.4 0.7,186.1 0.7,218.5 C0.7,251 41.4,281.8 103.8,300.9 C89.4,364.5 95.8,415.1 124,431.3 C130.5,435.1 138.1,436.9 146.5,436.9 C174,436.9 210,417.3 246.4,383.3 C282.8,417.1 318.8,436.5 346.3,436.5 C354.7,436.5 362.3,434.7 368.9,430.9 C397,414.7 403.3,364.2 388.8,300.8 C450.8,281.7 491.3,250.9 491.3,218.5 Z M361.1,151.8 C357.4,164.7 352.8,178 347.6,191.3 C343.5,183.3 339.2,175.3 334.5,167.3 C329.9,159.3 325,151.5 320.1,143.9 C334.3,146 348,148.6 361.1,151.8 Z M315.3,258.3 C307.5,271.8 299.5,284.6 291.2,296.5 C276.3,297.8 261.2,298.5 246,298.5 C230.9,298.5 215.8,297.8 201,296.6 C192.7,284.7 184.6,272 176.8,258.6 C169.2,245.5 162.3,232.2 156,218.8 C162.2,205.4 169.2,192 176.7,178.9 C184.5,165.4 192.5,152.6 200.8,140.7 C215.7,139.4 230.8,138.7 246,138.7 C261.1,138.7 276.2,139.4 291,140.6 C299.3,152.5 307.4,165.2 315.2,178.6 C322.8,191.7 329.7,205 336,218.4 C329.7,231.8 322.8,245.2 315.3,258.3 Z M347.6,245.3 C353,258.7 357.6,272.1 361.4,285.1 C348.3,288.3 334.5,291 320.2,293.1 C325.1,285.4 330,277.5 334.6,269.4 C339.2,261.4 343.5,253.3 347.6,245.3 Z M246.2,352 C236.9,342.4 227.6,331.7 218.4,320 C227.4,320.4 236.6,320.7 245.9,320.7 C255.3,320.7 264.6,320.5 273.7,320 C264.7,331.7 255.4,342.4 246.2,352 Z M171.8,293.1 C157.6,291 143.9,288.4 130.8,285.2 C134.5,272.3 139.1,259 144.3,245.7 C148.4,253.7 152.7,261.7 157.4,269.7 C162.1,277.7 166.9,285.5 171.8,293.1 Z M245.7,85 C255,94.6 264.3,105.3 273.5,117 C264.5,116.6 255.3,116.3 246,116.3 C236.6,116.3 227.3,116.5 218.2,117 C227.2,105.3 236.5,94.6 245.7,85 Z M171.7,143.9 C166.8,151.6 161.9,159.5 157.3,167.6 C152.7,175.6 148.4,183.6 144.3,191.6 C138.9,178.2 134.3,164.8 130.5,151.8 C143.6,148.7 157.4,146 171.7,143.9 Z M81.2,269.1 C45.8,254 22.9,234.2 22.9,218.5 C22.9,202.8 45.8,182.9 81.2,167.9 C89.8,164.2 99.2,160.9 108.9,157.8 C114.6,177.4 122.1,197.8 131.4,218.7 C122.2,239.5 114.8,259.8 109.2,279.3 C99.3,276.2 89.9,272.8 81.2,269.1 Z M135,412 C121.4,404.2 115.5,374.5 120.1,336.3 C121.2,326.9 123,317 125.2,306.9 C144.8,311.7 166.2,315.4 188.7,317.8 C202.2,336.3 216.2,353.1 230.3,367.8 C197.7,398.1 167.1,414.7 146.3,414.7 C141.8,414.6 138,413.7 135,412 Z M372.2,335.8 C376.9,374 371.1,403.7 357.6,411.6 C354.6,413.4 350.7,414.2 346.1,414.2 C325.4,414.2 294.7,397.7 262.1,367.6 C276.1,352.9 290.1,336.2 303.4,317.7 C326,315.3 347.4,311.6 367,306.7 C369.3,316.8 371.1,326.5 372.2,335.8 Z M410.7,269.1 C402.1,272.8 392.7,276.1 383,279.2 C377.3,259.6 369.8,239.2 360.5,218.3 C369.7,197.5 377.1,177.2 382.7,157.7 C392.6,160.8 402,164.2 410.8,167.9 C446.2,183 469.1,202.8 469.1,218.5 C469,234.2 446.1,254.1 410.7,269.1 Z" id="Shape" fill="#61DAFB"></path>
                                <circle id="Oval" fill="#61DAFB" cx="245.9" cy="218.5" r="45.7"></circle>
                            </g>
                        </g>
                    </g>
                </g>
            </g>
            <path d="M147,37 C100.055796,37 62,75.0557963 62,122 L62,1576 C62,1622.9442 100.055796,1661 147,1661 L727,1661 C773.944204,1661 812,1622.9442 812,1576 L812,122 C812,75.0557963 773.944204,37 727,37 L643.972692,37 C643.984776,37.2206869 643.993879,49.8873536 644,75 C644,96.5391052 626.539105,114 605,114 L269,114 C247.460895,114 230,96.5391052 230,75 L230,38 C230,37.7762953 202.333333,37.4429619 147,37 Z M157.19426,8 L716.80574,8 C761.381677,8 777.545989,12.6412806 793.842285,21.3566352 C810.138581,30.0719898 822.92801,42.8614185 831.643365,59.1577148 C840.358719,75.4540111 845,91.618323 845,136.19426 L845,1561.80574 C845,1606.38168 840.358719,1622.54599 831.643365,1638.84229 C822.92801,1655.13858 810.138581,1667.92801 793.842285,1676.64336 C777.545989,1685.35872 761.381677,1690 716.80574,1690 L157.19426,1690 C112.618323,1690 96.4540111,1685.35872 80.1577148,1676.64336 C63.8614185,1667.92801 51.0719898,1655.13858 42.3566352,1638.84229 C33.6412806,1622.54599 29,1606.38168 29,1561.80574 L29,136.19426 C29,91.618323 33.6412806,75.4540111 42.3566352,59.1577148 C51.0719898,42.8614185 63.8614185,30.0719898 80.1577148,21.3566352 C96.4540111,12.6412806 112.618323,8 157.19426,8 Z" id="screen-frame" stroke-opacity="0.03" stroke="#000000" stroke-width="4.80000019" fill="url(#linearGradient-7)" fill-rule="nonzero"></path>
            <g id="sensor-camera" opacity="0.6" transform="translate(382.000000, 55.000000)">
                <g id="Group" opacity="0.75" transform="translate(150.000000, 0.000000)">
                    <g id="Oval">
                        <g id="path-6-link" fill="#000000" fill-rule="nonzero">
                            <circle id="path-6" cx="12" cy="12" r="12"></circle>
                        </g>
                        <g id="path-6-link" fill="#9092A5">
                            <circle id="path-6" cx="12" cy="12" r="12"></circle>
                        </g>
                        <g id="path-6-link" fill="#000000" fill-rule="nonzero">
                            <circle id="path-6" cx="12" cy="12" r="12"></circle>
                        </g>
                    </g>
                    <g id="Oval" transform="translate(3.000000, 3.000000)">
                        <g id="path-9-link" fill="#000000" fill-rule="nonzero">
                            <circle id="path-9" cx="9" cy="9" r="9"></circle>
                        </g>
                        <g id="path-9-link" fill="#9092A5">
                            <circle id="path-9" cx="9" cy="9" r="9"></circle>
                        </g>
                        <g id="path-9-link" fill="#000000" fill-rule="nonzero">
                            <circle id="path-9" cx="9" cy="9" r="9"></circle>
                        </g>
                    </g>
                </g>
                <g id="Rectangle-2" transform="translate(0.000000, 7.000000)">
                    <g id="path-12-link" fill="#000000" fill-rule="nonzero">
                        <rect id="path-12" x="0" y="0" width="100" height="10" rx="5"></rect>
                    </g>
                    <g id="path-12-link" fill="#9092A5">
                        <rect id="path-12" x="0" y="0" width="100" height="10" rx="5"></rect>
                    </g>
                    <g id="path-12-link" fill="#000000" fill-rule="nonzero">
                        <rect id="path-12" x="0" y="0" width="100" height="10" rx="5"></rect>
                    </g>
                </g>
            </g>
        </g>
    </g>
</svg>