<?xml version="1.0" encoding="UTF-8"?>
<svg width="135px" height="120px" viewBox="0 0 135 120" version="1.1" xmlns="http://www.w3.org/2000/svg" xmlns:xlink="http://www.w3.org/1999/xlink">
    <!-- Generator: Sketch 48.2 (47327) - http://www.bohemiancoding.com/sketch -->
    <title>react</title>
    <desc>Created with Sketch.</desc>
    <defs></defs>
    <g id="Logos" stroke="none" stroke-width="1" fill="none" fill-rule="evenodd" transform="translate(-574.000000, -235.000000)">
        <g id="react" transform="translate(574.000000, 235.000000)" fill="#61DAFB" fill-rule="nonzero">
            <path d="M134.910755,60 C134.910755,51.0755149 123.734554,42.617849 106.599542,37.3729977 C110.553776,19.9084668 108.796339,6.01372998 101.052632,1.56521739 C99.2677346,0.52173913 97.180778,0.0274599542 94.9016018,0.0274599542 L94.9016018,6.15102975 C96.1647597,6.15102975 97.180778,6.39816934 98.0320366,6.86498856 C101.76659,9.00686499 103.386728,17.1624714 102.12357,27.6521739 C101.82151,30.2334096 101.327231,32.9519451 100.723112,35.7254005 C95.3409611,34.4073227 89.4645309,33.3913043 83.2860412,32.7322654 C79.5789474,27.6521739 75.7345538,23.0389016 71.8627002,19.0022883 C80.8146453,10.6819222 89.2173913,6.12356979 94.9290618,6.12356979 L94.9290618,0 C94.9290618,0 94.9290618,0 94.9290618,0 C87.3775744,0 77.4919908,5.38215103 67.4965675,14.7185355 C57.5011442,5.43707094 47.6155606,0.109839817 40.0640732,0.109839817 L40.0640732,6.23340961 C45.7482838,6.23340961 54.1784897,10.7643021 63.1304348,19.0297483 C59.2860412,23.0663616 55.4416476,27.6521739 51.7894737,32.7322654 C45.583524,33.3913043 39.7070938,34.4073227 34.3249428,35.7528604 C33.6933638,33.006865 33.2265446,30.3432494 32.8970252,27.7894737 C31.6064073,17.2997712 33.1990847,9.14416476 36.9061785,6.97482838 C37.7299771,6.4805492 38.8009153,6.26086957 40.0640732,6.26086957 L40.0640732,0.137299771 C40.0640732,0.137299771 40.0640732,0.137299771 40.0640732,0.137299771 C37.7574371,0.137299771 35.6704805,0.631578947 33.8581236,1.67505721 C26.1418764,6.12356979 24.4118993,19.9908467 28.3935927,37.4004577 C11.3135011,42.6727689 0.19221968,51.1029748 0.19221968,60 C0.19221968,68.9244851 11.3684211,77.382151 28.5034325,82.6270023 C24.5491991,100.091533 26.3066362,113.98627 34.0503432,118.434783 C35.8352403,119.478261 37.9221968,119.97254 40.228833,119.97254 C47.7803204,119.97254 57.6659039,114.590389 67.6613272,105.254005 C77.6567506,114.535469 87.5423341,119.8627 95.0938215,119.8627 C97.4004577,119.8627 99.4874142,119.368421 101.299771,118.324943 C109.016018,113.87643 110.745995,100.009153 106.764302,82.5995423 C123.789474,77.3546911 134.910755,68.8970252 134.910755,60 Z M99.1578947,41.6842105 C98.1418764,45.2265446 96.8787185,48.8787185 95.4508009,52.5308924 C94.3249428,50.3340961 93.1441648,48.1372998 91.8535469,45.9405034 C90.590389,43.7437071 89.2448513,41.6018307 87.8993135,39.5148741 C91.798627,40.0915332 95.5606407,40.805492 99.1578947,41.6842105 Z M86.5812357,70.9290618 C84.4393593,74.6361556 82.2425629,78.1510297 79.9633867,81.4187643 C75.8718535,81.7757437 71.7254005,81.9679634 67.5514874,81.9679634 C63.4050343,81.9679634 59.2585812,81.7757437 55.194508,81.4462243 C52.9153318,78.1784897 50.6910755,74.6910755 48.5491991,71.0114416 C46.4622426,67.4141876 44.5675057,63.7620137 42.8375286,60.0823799 C44.5400458,56.402746 46.4622426,52.7231121 48.5217391,49.1258581 C50.6636156,45.4187643 52.8604119,41.9038902 55.1395881,38.6361556 C59.2311213,38.2791762 63.3775744,38.0869565 67.5514874,38.0869565 C71.6979405,38.0869565 75.8443936,38.2791762 79.9084668,38.6086957 C82.187643,41.8764302 84.4118993,45.3638444 86.5537757,49.0434783 C88.6407323,52.6407323 90.5354691,56.2929062 92.2654462,59.97254 C90.5354691,63.6521739 88.6407323,67.3318078 86.5812357,70.9290618 Z M95.4508009,67.3592677 C96.9336384,71.0389016 98.1967963,74.7185355 99.2402746,78.2883295 C95.6430206,79.1670481 91.8535469,79.9084668 87.9267735,80.4851259 C89.2723112,78.3707094 90.617849,76.201373 91.8810069,73.9771167 C93.1441648,71.7803204 94.3249428,69.5560641 95.4508009,67.3592677 Z M67.6064073,96.6590389 C65.0526316,94.0228833 62.4988558,91.0846682 59.97254,87.8718535 C62.4439359,87.9816934 64.9702517,88.0640732 67.5240275,88.0640732 C70.1052632,88.0640732 72.6590389,88.0091533 75.1578947,87.8718535 C72.6864989,91.0846682 70.1327231,94.0228833 67.6064073,96.6590389 Z M47.1762014,80.4851259 C43.2768879,79.9084668 39.5148741,79.194508 35.9176201,78.3157895 C36.9336384,74.7734554 38.1967963,71.1212815 39.624714,67.4691076 C40.7505721,69.6659039 41.9313501,71.8627002 43.221968,74.0594966 C44.5125858,76.2562929 45.8306636,78.3981693 47.1762014,80.4851259 Z M67.4691076,23.3409611 C70.0228833,25.9771167 72.576659,28.9153318 75.1029748,32.1281465 C72.6315789,32.0183066 70.1052632,31.9359268 67.5514874,31.9359268 C64.9702517,31.9359268 62.416476,31.9908467 59.9176201,32.1281465 C62.389016,28.9153318 64.9427918,25.9771167 67.4691076,23.3409611 Z M47.1487414,39.5148741 C45.8032037,41.6292906 44.4576659,43.798627 43.194508,46.0228833 C41.9313501,48.2196796 40.7505721,50.416476 39.624714,52.6132723 C38.1418764,48.9336384 36.8787185,45.2540046 35.8352403,41.6842105 C39.4324943,40.8329519 43.221968,40.0915332 47.1487414,39.5148741 Z M22.2974828,73.8947368 C12.576659,69.7482838 6.28832952,64.3112128 6.28832952,60 C6.28832952,55.6887872 12.576659,50.2242563 22.2974828,46.1052632 C24.6590389,45.0892449 27.2402746,44.1830664 29.9038902,43.3318078 C31.4691076,48.7139588 33.5286041,54.3157895 36.0823799,60.0549199 C33.5560641,65.7665904 31.5240275,71.3409611 29.98627,76.6956522 C27.2677346,75.8443936 24.6864989,74.9107551 22.2974828,73.8947368 Z M37.0709382,113.135011 C33.3363844,110.993135 31.7162471,102.837529 32.979405,92.3478261 C33.2814645,89.7665904 33.7757437,87.0480549 34.3798627,84.2745995 C39.7620137,85.5926773 45.6384439,86.6086957 51.8169336,87.2677346 C55.5240275,92.3478261 59.3684211,96.9610984 63.2402746,100.997712 C54.2883295,109.318078 45.8855835,113.87643 40.173913,113.87643 C38.9382151,113.84897 37.8947368,113.601831 37.0709382,113.135011 Z M102.20595,92.2105263 C103.496568,102.700229 101.90389,110.855835 98.1967963,113.025172 C97.3729977,113.519451 96.3020595,113.73913 95.0389016,113.73913 C89.3546911,113.73913 80.9244851,109.208238 71.97254,100.942792 C75.8169336,96.9061785 79.6613272,92.3203661 83.3135011,87.2402746 C89.5194508,86.5812357 95.395881,85.5652174 100.778032,84.2196796 C101.409611,86.993135 101.90389,89.6567506 102.20595,92.2105263 Z M112.778032,73.8947368 C110.416476,74.9107551 107.83524,75.8169336 105.171625,76.6681922 C103.606407,71.2860412 101.546911,65.6842105 98.993135,59.9450801 C101.519451,54.2334096 103.551487,48.6590389 105.089245,43.3043478 C107.80778,44.1556064 110.389016,45.0892449 112.805492,46.1052632 C122.526316,50.2517162 128.814645,55.6887872 128.814645,60 C128.787185,64.3112128 122.498856,69.7757437 112.778032,73.8947368 Z" id="Shape"></path>
            <circle id="Oval" cx="67.5240275" cy="60" r="12.5491991"></circle>
        </g>
    </g>
</svg>